<svg xmlns="http://www.w3.org/2000/svg" width="80.143" height="80.075" viewBox="0 0 80.143 80.075">
  <g id="Сгруппировать_191" data-name="Сгруппировать 191" transform="translate(-135.386 -1597.472)">
    <circle id="Эллипс_23" data-name="Эллипс 23" cx="5.015" cy="5.015" r="5.015" transform="translate(164.571 1619.933) rotate(-80.103)" fill="none" stroke="#7f6e2c" stroke-linecap="round" stroke-linejoin="round" stroke-width="2"/>
    <path id="Контур_425" data-name="Контур 425" d="M180.3,1635.091a1.9,1.9,0,0,1-.266.139c-.012.012-.023.012-.058.012a1.717,1.717,0,0,1-.347.1.555.555,0,0,1-.174.046.841.841,0,0,1-.173.023,1.6,1.6,0,0,1-.324.023l-.717-.092a1.708,1.708,0,0,1-.671-.255.714.714,0,0,1-.139-.069l-6.316-3.841" fill="none" stroke="#7f6e2c" stroke-linecap="round" stroke-linejoin="round" stroke-width="2"/>
    <path id="Контур_426" data-name="Контур 426" d="M173.033,1625.64a.5.5,0,0,1,.127.081c.047.012.058.035.058.035l5.715,3.482" fill="none" stroke="#7f6e2c" stroke-linecap="round" stroke-linejoin="round" stroke-width="2"/>
    <path id="Контур_427" data-name="Контур 427" d="M178.933,1629.238l5.726-3.482c.1-.058.208-.116.312-.162a2.655,2.655,0,0,1,1.169-.266,2.839,2.839,0,0,1,1.608.5v.012a2.562,2.562,0,0,1,.844.879,2.841,2.841,0,0,1-.844,3.852v.012l-.1.069-2.673,1.62-4.523,2.753a.571.571,0,0,1-.15.069,1.9,1.9,0,0,1-.266.139c-.012.012-.023.012-.058.012a1.717,1.717,0,0,1-.347.1.555.555,0,0,1-.174.046.841.841,0,0,1-.173.023,1.6,1.6,0,0,1-.324.023,2.554,2.554,0,0,1-.717-.092,3.565,3.565,0,0,1-.671-.255" fill="none" stroke="#7f6e2c" stroke-linecap="round" stroke-linejoin="round" stroke-width="2"/>
    <path id="Контур_428" data-name="Контур 428" d="M172.112,1649.322l-1.419,7.988a3.2,3.2,0,0,0,2.6,3.69,2.72,2.72,0,0,0,.567.054,3.2,3.2,0,0,0,3.136-2.636l1.77-10.082v-.054a3.381,3.381,0,0,0-.148-1.609c-.068-.175-.149-.337-.23-.5-1.047-1.609-9.191-6.257-9.191-6.257" fill="none" stroke="#7f6e2c" stroke-linecap="round" stroke-linejoin="round" stroke-width="2"/>
    <path id="Контур_429" data-name="Контур 429" d="M160.6,1646.944l-6.864,17.606a3.179,3.179,0,0,0,1.825,4.122,3.133,3.133,0,0,0,1.149.216,3.192,3.192,0,0,0,2.973-2.04l6.4-16.363" fill="none" stroke="#7f6e2c" stroke-linecap="round" stroke-linejoin="round" stroke-width="2"/>
    <path id="Контур_430" data-name="Контур 430" d="M172.108,1649.32s-7.393-3.852-9.81-5.876c-.07-.058-.128-.116-.185-.162-2.2-1.944-1.724-5.148-1.3-7.566.023-.162.058-.324.092-.5a44.872,44.872,0,0,1,2.754-8.306,3.915,3.915,0,0,1,4.582-2.4,26.662,26.662,0,0,1,4.788,1.129.449.449,0,0,0,.127.081c.047.012.058.035.058.035" fill="none" stroke="#7f6e2c" stroke-linecap="round" stroke-linejoin="round" stroke-width="2"/>
    <path id="Контур_431" data-name="Контур 431" d="M169.192,1639.929v-.013a26.021,26.021,0,0,1,1.92-8.731" fill="none" stroke="#7f6e2c" stroke-linecap="round" stroke-linejoin="round" stroke-width="2"/>
    <path id="Контур_432" data-name="Контур 432" d="M169.782,1635.442c-3.661,4.879-9.077,2.406-9.077,2.406a3.224,3.224,0,0,1-3.623.865l-4.054-1.609a3.218,3.218,0,0,1-1.8-4.189l2.974-7.488a.05.05,0,0,1,.013-.04,6.366,6.366,0,0,1,8.258-3.528l1.122.459a3.158,3.158,0,0,1,1.973,2.406" fill="none" stroke="#7f6e2c" stroke-linecap="round" stroke-linejoin="round" stroke-width="2"/>
    <path id="Контур_433" data-name="Контур 433" d="M154.217,1625.387a.05.05,0,0,0-.013.04,2.141,2.141,0,0,0-.122.7,2.265,2.265,0,0,0,1.419,2.095,8.4,8.4,0,0,0,7.285-.541,5.917,5.917,0,0,0,.77-.513" fill="none" stroke="#7f6e2c" stroke-linecap="round" stroke-linejoin="round" stroke-width="2"/>
    <line id="Линия_221" data-name="Линия 221" x1="2.026" y1="0.487" transform="translate(152.056 1625.643)" fill="none" stroke="#7f6e2c" stroke-linecap="round" stroke-linejoin="round" stroke-width="2"/>
    <path id="Контур_434" data-name="Контур 434" d="M187.748,1630.568v22.385" fill="none" stroke="#7f6e2c" stroke-linecap="round" stroke-linejoin="round" stroke-width="2"/>
    <line id="Линия_222" data-name="Линия 222" y1="4.433" transform="translate(187.749 1621.399)" fill="none" stroke="#7f6e2c" stroke-linecap="round" stroke-linejoin="round" stroke-width="2"/>
    <path id="Контур_435" data-name="Контур 435" d="M143.767,1676.144c.237-.184.474-.356.711-.539h.011c.021-.011.032-.032.054-.043,1.626-1.239,3.318-2.51,5.149-3.7.313-.194.614-.388.937-.571a22.917,22.917,0,0,1,8.069-2.8,96.105,96.105,0,0,1,13.725-.668" fill="none" stroke="#7f6e2c" stroke-linecap="round" stroke-linejoin="round" stroke-width="2"/>
    <path id="Контур_436" data-name="Контур 436" d="M161.7,1668.125s6.768-9.905,33.591-9.148" fill="none" stroke="#7f6e2c" stroke-linecap="round" stroke-linejoin="round" stroke-width="2"/>
    <path id="Контур_437" data-name="Контур 437" d="M214.4,1642.543a65.37,65.37,0,0,0-12.529,2.92h-.011a52.58,52.58,0,0,0-9.113,4.115c-7.347,4.255-10.719,8.9-11.506,10.094" fill="none" stroke="#7f6e2c" stroke-linecap="round" stroke-linejoin="round" stroke-width="2"/>
    <path id="Контур_438" data-name="Контур 438" d="M201.875,1645.463h-.011l-6.5-.1L208,1627.871h-8.047l10.525-13.574-6.5-.151,10.417-15.664v-.011" fill="none" stroke="#7f6e2c" stroke-linecap="round" stroke-linejoin="round" stroke-width="2"/>
    <path id="Контур_439" data-name="Контур 439" d="M136.733,1623.831l8.866,17.236-5.537.172,8.952,14.92h-6.841l7.638,13.671.819,1.465" fill="none" stroke="#7f6e2c" stroke-linecap="round" stroke-linejoin="round" stroke-width="2"/>
    <line id="Линия_223" data-name="Линия 223" x2="0.852" y2="2.408" transform="translate(196.823 1668.888)" fill="none" stroke="#7f6e2c" stroke-linecap="round" stroke-linejoin="round" stroke-width="2"/>
    <line id="Линия_224" data-name="Линия 224" x1="0.852" y2="2.408" transform="translate(201.401 1668.888)" fill="none" stroke="#7f6e2c" stroke-linecap="round" stroke-linejoin="round" stroke-width="2"/>
    <line id="Линия_225" data-name="Линия 225" x1="0.852" y2="2.408" transform="translate(201.064 1650.294)" fill="none" stroke="#7f6e2c" stroke-linecap="round" stroke-linejoin="round" stroke-width="2"/>
    <line id="Линия_226" data-name="Линия 226" x1="0.852" y2="2.408" transform="translate(206.228 1658.085)" fill="none" stroke="#7f6e2c" stroke-linecap="round" stroke-linejoin="round" stroke-width="2"/>
    <line id="Линия_227" data-name="Линия 227" x1="0.852" y2="2.408" transform="translate(210.011 1658.097)" fill="none" stroke="#7f6e2c" stroke-linecap="round" stroke-linejoin="round" stroke-width="2"/>
    <line id="Линия_228" data-name="Линия 228" x2="0.852" y2="2.407" transform="translate(179.669 1671.203)" fill="none" stroke="#7f6e2c" stroke-linecap="round" stroke-linejoin="round" stroke-width="2"/>
    <line id="Линия_229" data-name="Линия 229" x2="0.852" y2="2.408" transform="translate(175.143 1671.582)" fill="none" stroke="#7f6e2c" stroke-linecap="round" stroke-linejoin="round" stroke-width="2"/>
    <line id="Линия_230" data-name="Линия 230" x2="1.167" y2="1.067" transform="translate(137.663 1635.438)" fill="none" stroke="#7f6e2c" stroke-linecap="round" stroke-linejoin="round" stroke-width="2"/>
    <line id="Линия_231" data-name="Линия 231" x2="1.905" y2="1.742" transform="translate(138.489 1649.32)" fill="none" stroke="#7f6e2c" stroke-linecap="round" stroke-linejoin="round" stroke-width="2"/>
    <line id="Линия_232" data-name="Линия 232" x2="3.434" y2="3.141" transform="translate(139.971 1665.748)" fill="none" stroke="#7f6e2c" stroke-linecap="round" stroke-linejoin="round" stroke-width="2"/>
    <line id="Линия_233" data-name="Линия 233" x1="1.393" y2="1.497" transform="translate(212.138 1608.189)" fill="none" stroke="#7f6e2c" stroke-linecap="round" stroke-linejoin="round" stroke-width="2"/>
    <line id="Линия_234" data-name="Линия 234" x1="1.755" y2="1.811" transform="translate(210.49 1621.591)" fill="none" stroke="#7f6e2c" stroke-linecap="round" stroke-linejoin="round" stroke-width="2"/>
    <line id="Линия_235" data-name="Линия 235" x1="2.504" y2="2.602" transform="translate(207.74 1635.714)" fill="none" stroke="#7f6e2c" stroke-linecap="round" stroke-linejoin="round" stroke-width="2"/>
  </g>
</svg>
