<svg xmlns="http://www.w3.org/2000/svg" width="80" height="83.581" viewBox="0 0 80 83.581">
  <g id="Сгруппировать_159" data-name="Сгруппировать 159" transform="translate(-137.733 -3499.701)">
    <path id="Контур_360" data-name="Контур 360" d="M149.116,3528.57v-15.222a2.89,2.89,0,0,1,2.89-2.89h11.138" fill="none" stroke="#934b38" stroke-linecap="round" stroke-linejoin="round" stroke-width="2"/>
    <path id="Контур_361" data-name="Контур 361" d="M206.281,3579.392a2.89,2.89,0,0,1-2.89,2.89H152.006a2.89,2.89,0,0,1-2.89-2.89v-13.819" fill="none" stroke="#934b38" stroke-linecap="round" stroke-linejoin="round" stroke-width="2"/>
    <path id="Контур_362" data-name="Контур 362" d="M192.253,3510.458h11.138a2.89,2.89,0,0,1,2.89,2.89v28.692" fill="none" stroke="#934b38" stroke-linecap="round" stroke-linejoin="round" stroke-width="2"/>
    <path id="Контур_363" data-name="Контур 363" d="M183.481,3506.484a5.783,5.783,0,1,0-11.565,0h-8.772v8.729h29.109v-8.729Z" fill="none" stroke="#934b38" stroke-linecap="round" stroke-linejoin="round" stroke-width="2"/>
    <line id="Линия_185" data-name="Линия 185" x2="6.1" transform="translate(183.609 3539.702)" fill="none" stroke="#934b38" stroke-linecap="round" stroke-linejoin="round" stroke-width="2"/>
    <line id="Линия_186" data-name="Линия 186" x2="24.022" transform="translate(165.687 3527.223)" fill="none" stroke="#934b38" stroke-linecap="round" stroke-linejoin="round" stroke-width="2"/>
    <line id="Линия_187" data-name="Линия 187" x1="6.1" transform="translate(165.687 3570.515)" fill="none" stroke="#934b38" stroke-linecap="round" stroke-linejoin="round" stroke-width="2"/>
    <g id="Сгруппировать_157" data-name="Сгруппировать 157">
      <path id="Контур_364" data-name="Контур 364" d="M183.154,3547.468H210.76a5.991,5.991,0,0,1,5.973,5.973v27.866l-5.973-7.137H183.154a5.991,5.991,0,0,1-5.973-5.973v-1.155" fill="none" stroke="#934b38" stroke-linecap="round" stroke-linejoin="round" stroke-width="2"/>
      <path id="Контур_365" data-name="Контур 365" d="M204.759,3561.817a.871.871,0,1,0,.871-.871A.871.871,0,0,0,204.759,3561.817Z" fill="none" stroke="#934b38" stroke-linecap="round" stroke-linejoin="round" stroke-width="2"/>
      <path id="Контур_366" data-name="Контур 366" d="M196.086,3561.817a.871.871,0,1,0,.871-.871A.871.871,0,0,0,196.086,3561.817Z" fill="none" stroke="#934b38" stroke-linecap="round" stroke-linejoin="round" stroke-width="2"/>
      <path id="Контур_367" data-name="Контур 367" d="M187.413,3561.817a.871.871,0,1,0,.871-.871A.871.871,0,0,0,187.413,3561.817Z" fill="none" stroke="#934b38" stroke-linecap="round" stroke-linejoin="round" stroke-width="2"/>
    </g>
    <g id="Сгруппировать_158" data-name="Сгруппировать 158">
      <path id="Контур_368" data-name="Контур 368" d="M172.311,3533.676H144.705a5.99,5.99,0,0,0-5.972,5.973v27.866l5.972-7.137h27.606a5.99,5.99,0,0,0,5.973-5.972v-14.757A5.991,5.991,0,0,0,172.311,3533.676Z" fill="none" stroke="#934b38" stroke-linecap="round" stroke-linejoin="round" stroke-width="2"/>
      <path id="Контур_369" data-name="Контур 369" d="M150.706,3548.025a.871.871,0,1,1-.871-.871A.871.871,0,0,1,150.706,3548.025Z" fill="none" stroke="#934b38" stroke-linecap="round" stroke-linejoin="round" stroke-width="2"/>
      <path id="Контур_370" data-name="Контур 370" d="M159.379,3548.025a.871.871,0,1,1-.871-.871A.871.871,0,0,1,159.379,3548.025Z" fill="none" stroke="#934b38" stroke-linecap="round" stroke-linejoin="round" stroke-width="2"/>
      <path id="Контур_371" data-name="Контур 371" d="M168.052,3548.025a.871.871,0,1,1-.871-.871A.871.871,0,0,1,168.052,3548.025Z" fill="none" stroke="#934b38" stroke-linecap="round" stroke-linejoin="round" stroke-width="2"/>
    </g>
  </g>
</svg>
