<svg xmlns="http://www.w3.org/2000/svg" width="80" height="67.337" viewBox="0 0 80 67.337">
  <g id="Сгруппировать_196" data-name="Сгруппировать 196" transform="translate(-1257 -3499.701)">
    <g id="Сгруппировать_194" data-name="Сгруппировать 194">
      <path id="Контур_449" data-name="Контур 449" d="M1277.279,3565.893l-9.64-60.752h58.721l9.64,60.752Z" fill="none" stroke="#934b38" stroke-linecap="round" stroke-linejoin="round" stroke-width="2"/>
      <line id="Линия_243" data-name="Линия 243" x2="3.304" transform="translate(1325.091 3517.967)" fill="none" stroke="#934b38" stroke-linecap="round" stroke-linejoin="round" stroke-width="2"/>
      <line id="Линия_244" data-name="Линия 244" x2="34.729" transform="translate(1269.675 3517.967)" fill="none" stroke="#934b38" stroke-linecap="round" stroke-linejoin="round" stroke-width="2"/>
      <path id="Контур_450" data-name="Контур 450" d="M1273.477,3541.93" fill="none" stroke="#934b38" stroke-linecap="round" stroke-linejoin="round" stroke-width="2"/>
      <path id="Контур_451" data-name="Контур 451" d="M1332.2,3541.93" fill="none" stroke="#934b38" stroke-linecap="round" stroke-linejoin="round" stroke-width="2"/>
      <path id="Контур_452" data-name="Контур 452" d="M1323.144,3541.93" fill="none" stroke="#934b38" stroke-linecap="round" stroke-linejoin="round" stroke-width="2"/>
    </g>
    <path id="Контур_453" data-name="Контур 453" d="M1267.64,3505.141l-9.64,60.752h19.279" fill="none" stroke="#934b38" stroke-linecap="round" stroke-linejoin="round" stroke-width="2"/>
    <line id="Линия_245" data-name="Линия 245" x1="7.605" y1="47.927" transform="translate(1288.49 3517.966)" fill="none" stroke="#934b38" stroke-linecap="round" stroke-linejoin="round" stroke-width="2"/>
    <line id="Линия_246" data-name="Линия 246" x2="2.133" transform="translate(1328.914 3534.346)" fill="none" stroke="#934b38" stroke-linecap="round" stroke-linejoin="round" stroke-width="2"/>
    <line id="Линия_247" data-name="Линия 247" x2="22.288" transform="translate(1272.29 3534.346)" fill="none" stroke="#934b38" stroke-linecap="round" stroke-linejoin="round" stroke-width="2"/>
    <line id="Линия_248" data-name="Линия 248" x2="7.199" transform="translate(1326.369 3550.13)" fill="none" stroke="#934b38" stroke-linecap="round" stroke-linejoin="round" stroke-width="2"/>
    <line id="Линия_249" data-name="Линия 249" x2="29.831" transform="translate(1274.812 3550.13)" fill="none" stroke="#934b38" stroke-linecap="round" stroke-linejoin="round" stroke-width="2"/>
    <path id="Контур_454" data-name="Контур 454" d="M1309.3,3505.141c0-2.452,1.187-4.44,2.652-4.44s2.653,1.988,2.653,4.44-1.188,4.44-2.653,4.44" fill="none" stroke="#934b38" stroke-linecap="round" stroke-linejoin="round" stroke-width="2"/>
    <path id="Контур_455" data-name="Контур 455" d="M1278.376,3505.141c0-2.452,1.188-4.44,2.653-4.44s2.652,1.988,2.652,4.44-1.187,4.44-2.652,4.44" fill="none" stroke="#934b38" stroke-linecap="round" stroke-linejoin="round" stroke-width="2"/>
    <g id="Сгруппировать_195" data-name="Сгруппировать 195">
      <path id="Контур_456" data-name="Контур 456" d="M1309.641,3519.65a5.377,5.377,0,1,0,5.377-5.377A5.377,5.377,0,0,0,1309.641,3519.65Z" fill="none" stroke="#934b38" stroke-linecap="round" stroke-linejoin="round" stroke-width="2"/>
      <line id="Линия_250" data-name="Линия 250" y1="15.786" transform="translate(1320.423 3531.337)" fill="none" stroke="#934b38" stroke-linecap="round" stroke-linejoin="round" stroke-width="2"/>
      <path id="Контур_457" data-name="Контур 457" d="M1320.423,3547.123a3.075,3.075,0,0,0,.492.052c1.768,0,3.758-1.432,3.758-3.2v-13.829c0-3.516-3.417-5.119-6.933-5.119h-2.722" fill="none" stroke="#934b38" stroke-linecap="round" stroke-linejoin="round" stroke-width="2"/>
      <line id="Линия_251" data-name="Линия 251" y1="15.786" transform="translate(1309.613 3531.337)" fill="none" stroke="#934b38" stroke-linecap="round" stroke-linejoin="round" stroke-width="2"/>
      <path id="Контур_458" data-name="Контур 458" d="M1315.018,3525.027h-3.469c-2.672,0-2.778.589-5.8,3.19a1.62,1.62,0,0,1-2.08.237l-2.211-1.646a2.938,2.938,0,0,0-3.038,5.029l2.964,2.219c1.372.957,3.263,1.461,4.668.687l3.566-2.239" fill="none" stroke="#934b38" stroke-linecap="round" stroke-linejoin="round" stroke-width="2"/>
      <line id="Линия_252" data-name="Линия 252" y1="21.323" transform="translate(1315.018 3544.604)" fill="none" stroke="#934b38" stroke-linecap="round" stroke-linejoin="round" stroke-width="2"/>
      <line id="Линия_253" data-name="Линия 253" x1="0.56" y2="18.77" transform="translate(1319.864 3547.123)" fill="none" stroke="#934b38" stroke-linecap="round" stroke-linejoin="round" stroke-width="2"/>
      <line id="Линия_254" data-name="Линия 254" x2="0.571" y2="18.77" transform="translate(1309.613 3547.123)" fill="none" stroke="#934b38" stroke-linecap="round" stroke-linejoin="round" stroke-width="2"/>
      <path id="Контур_459" data-name="Контур 459" d="M1298.09,3526.853l-1.329-2.78,1.336-.5,1.268,2.714" fill="none" stroke="#934b38" stroke-linecap="round" stroke-linejoin="round" stroke-width="2"/>
      <path id="Контур_460" data-name="Контур 460" d="M1296.761,3524.073l-.2-2,1.531,1.5" fill="none" stroke="#934b38" stroke-linecap="round" stroke-linejoin="round" stroke-width="2"/>
    </g>
    <path id="Контур_461" data-name="Контур 461" d="M1276.648,3525.058l3.707,4.089,4.024-5.645" fill="none" stroke="#934b38" stroke-linecap="round" stroke-linejoin="round" stroke-width="2"/>
    <path id="Контур_462" data-name="Контур 462" d="M1298.192,3541.93l2.558,2.823,3.366-4.722" fill="none" stroke="#934b38" stroke-linecap="round" stroke-linejoin="round" stroke-width="2"/>
    <line id="Линия_255" data-name="Линия 255" x2="6.507" y2="5.532" transform="translate(1282.668 3555.923)" fill="none" stroke="#934b38" stroke-linecap="round" stroke-linejoin="round" stroke-width="2"/>
    <line id="Линия_256" data-name="Линия 256" x1="4.941" y2="5.532" transform="translate(1283.255 3555.923)" fill="none" stroke="#934b38" stroke-linecap="round" stroke-linejoin="round" stroke-width="2"/>
  </g>
</svg>
