<?xml version="1.0" encoding="utf-8"?>
<!-- Generator: Adobe Illustrator 25.0.1, SVG Export Plug-In . SVG Version: 6.00 Build 0)  -->
<svg version="1.1" id="Layer_1" xmlns="http://www.w3.org/2000/svg" xmlns:xlink="http://www.w3.org/1999/xlink" x="0px" y="0px"
	 viewBox="0 0 302.3 57.6" style="enable-background:new 0 0 302.3 57.6;" xml:space="preserve">
<style type="text/css">
	.st0{fill:#231F20;}
	.st1{fill:#7F6E2C;}
</style>
<g id="Сгруппировать_136" transform="translate(-695.904 -6402.954)">
	<g id="Сгруппировать_135">
		<g id="Сгруппировать_134">
			<g id="Сгруппировать_133">
				<path id="Контур_234" class="st0" d="M712.8,6449.7c-3.3,0.1-6.5-1.2-8.9-3.5c-4.8-4.8-4.8-12.5,0-17.2
					c2.4-2.3,5.6-3.6,8.9-3.5c2.2,0,4.3,0.5,6.3,1.5c1.8,1,3.4,2.4,4.4,4.2l-5.7,3.5c-0.5-0.9-1.2-1.6-2-2.1
					c-0.9-0.5-1.9-0.8-2.9-0.8c-1.5,0-3,0.5-4,1.6c-2.2,2.3-2.2,5.8,0,8.1c1.1,1.1,2.5,1.7,4,1.6c1,0,2-0.3,2.9-0.8
					c0.9-0.5,1.6-1.2,2-2.1l5.7,3.5c-1.1,1.8-2.6,3.2-4.4,4.2C717.1,6449.2,715,6449.7,712.8,6449.7z"/>
				<path id="Контур_235" class="st0" d="M743.6,6426.1h6.6v23.1h-6.6v-2.3c-1.8,1.9-4.4,2.9-7,2.8c-3,0.1-5.9-1.2-7.9-3.5
					c-4.3-5-4.3-12.3,0-17.2c2-2.3,4.9-3.5,7.9-3.5c2.6-0.1,5.2,1,7,2.8V6426.1z M737.9,6443.3c1.5,0,3-0.6,4-1.6
					c2.2-2.3,2.2-5.8,0-8.1c-1.1-1.1-2.5-1.7-4-1.6c-1.5,0-3,0.6-4,1.6c-2.1,2.3-2.1,5.8,0,8.1
					C734.9,6442.8,736.4,6443.4,737.9,6443.3z"/>
				<path id="Контур_236" class="st0" d="M783.8,6425.5c4.4-0.3,8.3,3.1,8.6,7.5c0,0.4,0,0.7,0,1.1v15.1h-6.6v-13.1
					c0.1-1.1-0.3-2.2-1.1-3c-0.8-0.8-1.8-1.2-2.9-1.1c-1.1,0-2.3,0.4-3.1,1.2c-0.8,0.8-1.2,1.9-1.2,3.1v13h-6.6v-13.1
					c0.1-1.1-0.3-2.2-1.1-3c-0.8-0.8-1.8-1.2-2.9-1.1c-1.1,0-2.3,0.4-3.1,1.2c-0.8,0.8-1.2,1.9-1.2,3.1v13h-6.6v-23.1h6.6v2.2
					c1.7-1.8,4.1-2.8,6.6-2.8c1.4,0,2.9,0.3,4.1,0.9c1.2,0.6,2.2,1.5,2.9,2.6C777.9,6426.7,780.8,6425.4,783.8,6425.5z"/>
				<path id="Контур_237" class="st0" d="M854.3,6426.1h7.2l-8.1,23.1h-6.8l-4.3-14.9l-4.4,14.9h-6.8l-8.1-23.1h7.4l4.3,14.5
					l4.3-14.5h6.7l4.4,14.5L854.3,6426.1z"/>
				<path id="Контур_238" class="st0" d="M874.7,6449.7c-3.3,0.1-6.5-1.2-8.9-3.5c-4.8-4.8-4.8-12.5,0-17.2
					c2.4-2.3,5.6-3.6,8.9-3.5c2.2,0,4.4,0.5,6.4,1.6c1.9,1,3.4,2.5,4.5,4.4c2.2,3.8,2.2,8.5,0,12.3c-1.1,1.8-2.6,3.3-4.5,4.4
					C879.1,6449.2,876.9,6449.7,874.7,6449.7z M870.6,6441.7c2.3,2.2,5.8,2.2,8.1,0c2.2-2.3,2.2-5.8,0-8.1c-2.3-2.2-5.8-2.2-8.1,0
					C868.5,6435.8,868.5,6439.4,870.6,6441.7z"/>
				<path id="Контур_239" class="st0" d="M904.3,6425.7h1v6.8h-1c-1.7-0.1-3.3,0.5-4.6,1.6c-1.1,1.1-1.7,2.7-1.6,4.3v10.8
					h-6.6v-23.1h6.6v2.6C899.6,6426.8,901.9,6425.7,904.3,6425.7z"/>
				<path id="Контур_240" class="st0" d="M923.3,6449.1l-6.1-7.4l-1.7,1.9v5.6H909v-32.6h6.6v18.1l7.6-8.6h8.6l-9.8,10.6
					l10.1,12.4H923.3z"/>
				<path id="Контур_241" class="st0" d="M937.9,6423.1c-2.2,0-4-1.7-4.1-3.9c0-0.1,0-0.1,0-0.2c0-1.1,0.4-2.1,1.2-2.9
					c0.8-0.8,1.8-1.2,2.9-1.1c1.1,0,2.2,0.4,3,1.1c0.8,0.7,1.2,1.8,1.2,2.9c0,1.1-0.4,2.1-1.2,2.9
					C940.1,6422.7,939,6423.1,937.9,6423.1z M934.6,6449.1v-23.1h6.6v23.1H934.6z"/>
				<path id="Контур_242" class="st0" d="M960.5,6425.5c2.4-0.1,4.7,0.8,6.4,2.4c1.7,1.7,2.5,4,2.4,6.4v14.9h-6.6v-12.6
					c0.1-1.2-0.4-2.5-1.2-3.4c-0.9-0.9-2-1.3-3.3-1.3c-1.3-0.1-2.5,0.4-3.4,1.3c-0.9,0.9-1.4,2.1-1.3,3.4v12.5h-6.6v-23.1h6.6v2.3
					C955.3,6426.5,957.9,6425.4,960.5,6425.5z"/>
				<path id="Контур_243" class="st0" d="M989.3,6448.9c2.1-0.1,4.2,0.6,5.9,1.8c1.6,1.3,2.7,3.1,3,5.2l-6.8,1.9
					c-0.1-0.7-0.4-1.4-1-1.8c-0.7-0.5-1.5-0.7-2.3-0.7h-7.2c-2,0.1-3.9-0.5-5.4-1.8c-1.3-1.2-2.1-2.9-2-4.7c0-1.2,0.3-2.4,0.9-3.5
					c0.5-1,1.3-1.9,2.3-2.5c-4-3.9-4-10.3-0.2-14.2c0.1-0.1,0.2-0.2,0.2-0.2c2.1-2,4.9-3,7.8-2.9c1.7,0,3.3,0.3,4.8,1
					c0.3-1.2,1.1-2.3,2.2-3c1.2-0.8,2.6-1.1,4-1.1h1.9v6.1h-1.6c-0.5,0-1,0.1-1.4,0.4c-0.4,0.2-0.6,0.6-0.8,1
					c1.2,1.7,1.8,3.7,1.8,5.8c0.1,2.8-1.1,5.4-3.1,7.3c-2.1,2-4.9,3-7.8,2.9c-1.1,0-2.3-0.2-3.4-0.5c-0.6,0.4-1,1-1,1.8
					c0,0.5,0.2,0.9,0.6,1.2c0.4,0.3,1,0.5,1.5,0.5L989.3,6448.9z M984.5,6431.8c-1.1,0-2.2,0.4-3,1.1c-1.6,1.6-1.5,4.1,0,5.6
					c0,0,0,0,0,0c0.8,0.8,1.8,1.2,2.9,1.1c1.1,0,2.2-0.4,3-1.1c1.6-1.5,1.6-3.9,0.1-5.5c0,0-0.1-0.1-0.1-0.1
					C986.7,6432.1,985.6,6431.7,984.5,6431.8L984.5,6431.8z"/>
			</g>
		</g>
		<path id="Контур_244" class="st1" d="M711.7,6404.7l-14.8,5.1v6.6l14.8-5.1l14.8,5.1v-6.6L711.7,6404.7z"/>
	</g>
	<path id="Контур_245" class="st0" d="M819.1,6429c-2-2.3-4.9-3.5-8-3.5c-2.6-0.1-5.1,1-7,2.8v-2.3h-6.6v31.7h0l6.6-1.8v-9.1
		c1.8,1.9,4.3,2.9,7,2.8c3,0.1,5.9-1.2,8-3.5C823.4,6441.3,823.4,6433.9,819.1,6429L819.1,6429z M813.9,6441.7
		c-2.3,2.2-5.8,2.2-8.1,0c-2.2-2.3-2.2-5.8,0-8.1c2.3-2.2,5.8-2.2,8.1,0C816.1,6435.8,816.1,6439.4,813.9,6441.7z"/>
</g>
</svg>
