<svg xmlns="http://www.w3.org/2000/svg" width="108.679" height="106.65" viewBox="0 0 108.679 106.65">
  <g id="Сгруппировать_179" data-name="Сгруппировать 179" transform="translate(-140.107 -5333.597)">
    <path id="Контур_376" data-name="Контур 376" d="M202.9,5380.439l3.819-7.583h-5.977l11.457-16.631-6.337-.208h-.042l.042-.069,12.757-20.976" fill="none" stroke="#7f6e2c" stroke-linecap="round" stroke-linejoin="round" stroke-width="2"/>
    <path id="Контур_377" data-name="Контур 377" d="M218.618,5334.971l12.755,20.973.046.075h-.037l-6.342.2,11.454,16.633h-5.976l10.959,21.708H210.841" fill="none" stroke="#7f6e2c" stroke-linecap="round" stroke-linejoin="round" stroke-width="2"/>
    <path id="Контур_378" data-name="Контур 378" d="M179.591,5372.35h-4.911l9.413-13.665-5.207-.171h-.034l.034-.057,10.482-17.235" fill="none" stroke="#7f6e2c" stroke-linecap="round" stroke-linejoin="round" stroke-width="2"/>
    <path id="Контур_379" data-name="Контур 379" d="M199.178,5365.262l-4.533-6.583,5.21-.164h.03l-.037-.062-10.48-17.232" fill="none" stroke="#7f6e2c" stroke-linecap="round" stroke-linejoin="round" stroke-width="2"/>
    <line id="Линия_188" data-name="Линия 188" x2="1.171" y2="3.306" transform="translate(146.54 5428.583)" fill="none" stroke="#7f6e2c" stroke-linecap="round" stroke-linejoin="round" stroke-width="2"/>
    <line id="Линия_189" data-name="Линия 189" x2="1.17" y2="3.306" transform="translate(198.606 5422.651)" fill="none" stroke="#7f6e2c" stroke-linecap="round" stroke-linejoin="round" stroke-width="2"/>
    <line id="Линия_190" data-name="Линия 190" x2="1.171" y2="3.306" transform="translate(193.076 5423.094)" fill="none" stroke="#7f6e2c" stroke-linecap="round" stroke-linejoin="round" stroke-width="2"/>
    <line id="Линия_191" data-name="Линия 191" x1="1.17" y2="3.306" transform="translate(152.827 5428.583)" fill="none" stroke="#7f6e2c" stroke-linecap="round" stroke-linejoin="round" stroke-width="2"/>
    <line id="Линия_192" data-name="Линия 192" x1="1.17" y2="3.306" transform="translate(242.92 5407.988)" fill="none" stroke="#7f6e2c" stroke-linecap="round" stroke-linejoin="round" stroke-width="2"/>
    <line id="Линия_193" data-name="Линия 193" x1="1.171" y2="3.306" transform="translate(181.438 5435.665)" fill="none" stroke="#7f6e2c" stroke-linecap="round" stroke-linejoin="round" stroke-width="2"/>
    <path id="Контур_380" data-name="Контур 380" d="M196.177,5378.006v39.279h22.441Z" fill="none" stroke="#7f6e2c" stroke-linecap="round" stroke-linejoin="round" stroke-width="2"/>
    <path id="Контур_381" data-name="Контур 381" d="M196.177,5378.006v39.279H173.736Z" fill="none" stroke="#7f6e2c" stroke-linecap="round" stroke-linejoin="round" stroke-width="2"/>
    <path id="Контур_382" data-name="Контур 382" d="M164.049,5417.286H141.606L164.049,5378" fill="none" stroke="#7f6e2c" stroke-linecap="round" stroke-linejoin="round" stroke-width="2"/>
    <line id="Линия_194" data-name="Линия 194" x2="32.127" transform="translate(164.047 5378.006)" fill="none" stroke="#7f6e2c" stroke-linecap="round" stroke-linejoin="round" stroke-width="2"/>
    <line id="Линия_195" data-name="Линия 195" x2="9.686" transform="translate(164.05 5417.285)" fill="none" stroke="#7f6e2c" stroke-linecap="round" stroke-linejoin="round" stroke-width="2"/>
    <g id="Сгруппировать_178" data-name="Сгруппировать 178">
      <path id="Контур_383" data-name="Контур 383" d="M240.174,5422.7c4.716,6.026,1.848,12.705-2.606,14.615" fill="none" stroke="#7f6e2c" stroke-linecap="round" stroke-linejoin="round" stroke-width="2"/>
      <path id="Контур_384" data-name="Контур 384" d="M227.88,5437.307c-4.454-1.91-7.323-8.578-2.606-14.6,5.541-7.08,4.361-11.129,4.361-11.129s5.109,1.621,6.278,8.737a28.435,28.435,0,0,1-.435,8.531" fill="none" stroke="#7f6e2c" stroke-linecap="round" stroke-linejoin="round" stroke-width="2"/>
    </g>
    <line id="Линия_196" data-name="Линия 196" x2="25.466" transform="translate(219.991 5437.318)" fill="none" stroke="#7f6e2c" stroke-linecap="round" stroke-linejoin="round" stroke-width="2"/>
    <line id="Линия_197" data-name="Линия 197" x1="37.946" transform="translate(209.84 5401.944)" fill="none" stroke="#7f6e2c" stroke-linecap="round" stroke-linejoin="round" stroke-width="2"/>
    <line id="Линия_198" data-name="Линия 198" x1="9.276" transform="translate(141.107 5401.944)" fill="none" stroke="#7f6e2c" stroke-linecap="round" stroke-linejoin="round" stroke-width="2"/>
    <rect id="Прямоугольник_190" data-name="Прямоугольник 190" width="6.637" height="7.356" transform="translate(215.3 5394.588)" fill="none" stroke="#7f6e2c" stroke-linecap="round" stroke-linejoin="round" stroke-width="2"/>
    <line id="Линия_199" data-name="Линия 199" y1="2.738" x2="0.007" transform="translate(150.97 5346.978)" fill="none" stroke="#7f6e2c" stroke-linecap="round" stroke-linejoin="round" stroke-width="2"/>
    <line id="Линия_200" data-name="Линия 200" y1="2.738" x2="0.007" transform="translate(150.967 5337.844)" fill="none" stroke="#7f6e2c" stroke-linecap="round" stroke-linejoin="round" stroke-width="2"/>
    <line id="Линия_201" data-name="Линия 201" x1="1.066" y1="0.002" transform="translate(146.86 5343.78)" fill="none" stroke="#7f6e2c" stroke-linecap="round" stroke-linejoin="round" stroke-width="2"/>
    <line id="Линия_202" data-name="Линия 202" y1="0.002" x2="1.066" transform="translate(154.028 5343.78)" fill="none" stroke="#7f6e2c" stroke-linecap="round" stroke-linejoin="round" stroke-width="2"/>
    <line id="Линия_203" data-name="Линия 203" y1="2.738" x2="0.007" transform="translate(167.761 5361.018)" fill="none" stroke="#7f6e2c" stroke-linecap="round" stroke-linejoin="round" stroke-width="2"/>
    <line id="Линия_204" data-name="Линия 204" y1="2.738" x2="0.007" transform="translate(167.758 5351.885)" fill="none" stroke="#7f6e2c" stroke-linecap="round" stroke-linejoin="round" stroke-width="2"/>
    <line id="Линия_205" data-name="Линия 205" x1="1.066" y1="0.002" transform="translate(163.65 5357.82)" fill="none" stroke="#7f6e2c" stroke-linecap="round" stroke-linejoin="round" stroke-width="2"/>
    <line id="Линия_206" data-name="Линия 206" y1="0.002" x2="1.065" transform="translate(170.819 5357.82)" fill="none" stroke="#7f6e2c" stroke-linecap="round" stroke-linejoin="round" stroke-width="2"/>
    <line id="Линия_207" data-name="Линия 207" y1="2.738" x2="0.007" transform="translate(240.67 5348.321)" fill="none" stroke="#7f6e2c" stroke-linecap="round" stroke-linejoin="round" stroke-width="2"/>
    <line id="Линия_208" data-name="Линия 208" y1="2.738" x2="0.007" transform="translate(240.667 5339.188)" fill="none" stroke="#7f6e2c" stroke-linecap="round" stroke-linejoin="round" stroke-width="2"/>
    <line id="Линия_209" data-name="Линия 209" x1="1.066" y1="0.002" transform="translate(236.56 5345.124)" fill="none" stroke="#7f6e2c" stroke-linecap="round" stroke-linejoin="round" stroke-width="2"/>
    <line id="Линия_210" data-name="Линия 210" y1="0.002" x2="1.066" transform="translate(243.729 5345.124)" fill="none" stroke="#7f6e2c" stroke-linecap="round" stroke-linejoin="round" stroke-width="2"/>
    <path id="Контур_385" data-name="Контур 385" d="M150.63,5369.27a.247.247,0,1,1-.247-.247A.247.247,0,0,1,150.63,5369.27Z" fill="none" stroke="#7f6e2c" stroke-linecap="round" stroke-linejoin="round" stroke-width="2"/>
    <path id="Контур_386" data-name="Контур 386" d="M172.378,5346a.247.247,0,1,1-.247-.246A.247.247,0,0,1,172.378,5346Z" fill="none" stroke="#7f6e2c" stroke-linecap="round" stroke-linejoin="round" stroke-width="2"/>
    <path id="Контур_387" data-name="Контур 387" d="M243.975,5370.874a.247.247,0,1,1-.246-.246A.247.247,0,0,1,243.975,5370.874Z" fill="none" stroke="#7f6e2c" stroke-linecap="round" stroke-linejoin="round" stroke-width="2"/>
  </g>
</svg>
