<svg xmlns="http://www.w3.org/2000/svg" width="80.66" height="74.718" viewBox="0 0 80.66 74.718">
  <g id="Сгруппировать_198" data-name="Сгруппировать 198" transform="translate(-697.379 -1608.129)">
    <g id="Сгруппировать_197" data-name="Сгруппировать 197">
      <path id="Контур_465" data-name="Контур 465" d="M742.6,1674.637a7.934,7.934,0,0,0,.943-1.244v-.011a7.842,7.842,0,0,0,.967-2.109,9.44,9.44,0,0,0-2.108-8.826c-.447-.545-.844-1.066-1.2-1.564" fill="none" stroke="#7f6e2c" stroke-linecap="round" stroke-linejoin="round" stroke-width="2"/>
      <path id="Контур_466" data-name="Контур 466" d="M727.123,1674.7a7.591,7.591,0,0,1-1.017-1.3,7.864,7.864,0,0,1-.931-2.037l-.012-.012a9.4,9.4,0,0,1,2.084-8.9c5.632-6.871,4.441-9.719,4.441-9.719s5.112.494,6.377,7.4c.907,4.956-.72,7.635-.72,7.635" fill="none" stroke="#7f6e2c" stroke-linecap="round" stroke-linejoin="round" stroke-width="2"/>
    </g>
    <ellipse id="Эллипс_26" data-name="Эллипс 26" cx="17.151" cy="4.164" rx="17.151" ry="4.164" transform="translate(718.942 1625.546)" fill="none" stroke="#7f6e2c" stroke-linecap="round" stroke-linejoin="round" stroke-width="2"/>
    <path id="Контур_467" data-name="Контур 467" d="M719.024,1629.564a.05.05,0,0,0-.015.043c-.014.187-.014.389-.014.576s0,.389.014.577c.322,8.661,7.845,15.594,17.08,15.594,9.293,0,16.83-6.976,17.093-15.695.015-.159.015-.317.015-.476s0-.317-.015-.475" fill="none" stroke="#7f6e2c" stroke-linecap="round" stroke-linejoin="round" stroke-width="2"/>
    <path id="Контур_468" data-name="Контур 468" d="M724.941,1672.529a7.1,7.1,0,0,0-3.288-1.681c-2.952-.7-5.905.107-6.6,1.819s1.141,3.659,4.093,4.362a7.464,7.464,0,0,0,5.484-.586.8.8,0,0,1,.161-.106,2.606,2.606,0,0,0,.943-1.127,1.846,1.846,0,0,0,.136-.851" fill="none" stroke="#7f6e2c" stroke-linecap="round" stroke-linejoin="round" stroke-width="2"/>
    <path id="Контур_469" data-name="Контур 469" d="M734.808,1679.048c-.246,1.776-2.934,3.014-6.005,2.764s-5.362-1.893-5.116-3.67,2.934-3.014,6.005-2.764S735.054,1677.271,734.808,1679.048Z" fill="none" stroke="#7f6e2c" stroke-linecap="round" stroke-linejoin="round" stroke-width="2"/>
    <path id="Контур_470" data-name="Контур 470" d="M744.595,1672.455a6.863,6.863,0,0,1,3.263-1.67c2.952-.713,5.905.106,6.587,1.808s-1.129,3.659-4.082,4.361a7.636,7.636,0,0,1-5.334-.479c-.025-.021-.037-.032-.05-.032a3.6,3.6,0,0,1-.409-.276,2.551,2.551,0,0,1-.794-1.021,2.015,2.015,0,0,1-.149-.8" fill="none" stroke="#7f6e2c" stroke-linecap="round" stroke-linejoin="round" stroke-width="2"/>
    <path id="Контур_471" data-name="Контур 471" d="M734.854,1678.978c.246,1.777,2.935,3.014,6.006,2.764s5.361-1.893,5.116-3.669-2.935-3.014-6.006-2.764S734.609,1677.2,734.854,1678.978Z" fill="none" stroke="#7f6e2c" stroke-linecap="round" stroke-linejoin="round" stroke-width="2"/>
    <path id="Контур_472" data-name="Контур 472" d="M741.9,1625.546a69.6,69.6,0,0,0-1.874-7.545" fill="none" stroke="#7f6e2c" stroke-linecap="round" stroke-linejoin="round" stroke-width="2"/>
    <path id="Контур_473" data-name="Контур 473" d="M736.429,1611.992q-3.062,1.88-6.134,25.156" fill="none" stroke="#7f6e2c" stroke-linecap="round" stroke-linejoin="round" stroke-width="2"/>
    <path id="Контур_474" data-name="Контур 474" d="M705.816,1676.889c-5.778-23.215,4.2-50.655,0-56.223-.454-.766-.854-1.4-1.209-1.93" fill="none" stroke="#7f6e2c" stroke-linecap="round" stroke-linejoin="round" stroke-width="2"/>
    <path id="Контур_475" data-name="Контур 475" d="M704.607,1618.736c-.177-.688-3.86-8.153-4.081-9.129" fill="none" stroke="#7f6e2c" stroke-linecap="round" stroke-linejoin="round" stroke-width="2"/>
    <path id="Контур_476" data-name="Контур 476" d="M705.811,1620.662s7.333-6.16,8.605-10.365" fill="none" stroke="#7f6e2c" stroke-linecap="round" stroke-linejoin="round" stroke-width="2"/>
    <line id="Линия_258" data-name="Линия 258" y1="2.665" x2="2.928" transform="translate(705.251 1639.827)" fill="none" stroke="#7f6e2c" stroke-linecap="round" stroke-linejoin="round" stroke-width="2"/>
    <path id="Контур_477" data-name="Контур 477" d="M775.662,1609.668c-1.61,4.891-3.1,6.5-4.711,11.049,1.168,21.372-5.139,30.383,0,56.222" fill="none" stroke="#7f6e2c" stroke-linecap="round" stroke-linejoin="round" stroke-width="2"/>
    <path id="Контур_478" data-name="Контур 478" d="M768.163,1617.446c-.355-.477-5.72-7.472-6.031-7.927" fill="none" stroke="#7f6e2c" stroke-linecap="round" stroke-linejoin="round" stroke-width="2"/>
    <path id="Контур_479" data-name="Контур 479" d="M770.946,1620.721c-.806-.923-1.785-2.05-2.783-3.275" fill="none" stroke="#7f6e2c" stroke-linecap="round" stroke-linejoin="round" stroke-width="2"/>
    <line id="Линия_259" data-name="Линия 259" x2="3.45" y2="3.812" transform="translate(765.47 1651.931)" fill="none" stroke="#7f6e2c" stroke-linecap="round" stroke-linejoin="round" stroke-width="2"/>
    <line id="Линия_260" data-name="Линия 260" y1="2.338" x2="3.071" transform="translate(771.065 1626.367)" fill="none" stroke="#7f6e2c" stroke-linecap="round" stroke-linejoin="round" stroke-width="2"/>
    <path id="Контур_480" data-name="Контур 480" d="M738.413,1614.9c9.742-.521,27.111-1.009,38.587-.555" fill="none" stroke="#7f6e2c" stroke-linecap="round" stroke-linejoin="round" stroke-width="2"/>
    <path id="Контур_481" data-name="Контур 481" d="M738.413,1614.9c-5.62.3-27.1.643-32.033.688" fill="none" stroke="#7f6e2c" stroke-linecap="round" stroke-linejoin="round" stroke-width="2"/>
    <path id="Контур_482" data-name="Контур 482" d="M706.38,1615.586a63.254,63.254,0,0,1-7.84-.865" fill="none" stroke="#7f6e2c" stroke-linecap="round" stroke-linejoin="round" stroke-width="2"/>
  </g>
</svg>
