<svg xmlns="http://www.w3.org/2000/svg" width="85.641" height="79.673" viewBox="0 0 85.641 79.673">
  <g id="Сгруппировать_156" data-name="Сгруппировать 156" transform="translate(-696.05 -3499.701)">
    <circle id="Эллипс_20" data-name="Эллипс 20" cx="8.752" cy="8.752" r="8.752" transform="matrix(0.924, -0.383, 0.383, 0.924, 697.356, 3542.059)" fill="none" stroke="#934b38" stroke-linecap="round" stroke-linejoin="round" stroke-width="2"/>
    <path id="Контур_348" data-name="Контур 348" d="M747.622,3546.8a8.752,8.752,0,1,1-8.752-8.752A8.751,8.751,0,0,1,747.622,3546.8Z" fill="none" stroke="#934b38" stroke-linecap="round" stroke-linejoin="round" stroke-width="2"/>
    <path id="Контур_349" data-name="Контур 349" d="M724.611,3566.9v-4.944a6.408,6.408,0,0,1,6.408-6.409h15.707a6.409,6.409,0,0,1,6.408,6.409v4.944" fill="none" stroke="#934b38" stroke-linecap="round" stroke-linejoin="round" stroke-width="2"/>
    <path id="Контур_350" data-name="Контур 350" d="M700.034,3578.372v-15.984c0-4.368,3.551-6.849,7.918-6.849h1.476a7.436,7.436,0,0,1,7.008,4.948l3.588,10.106" fill="none" stroke="#934b38" stroke-linecap="round" stroke-linejoin="round" stroke-width="2"/>
    <line id="Линия_178" data-name="Линия 178" x2="53.112" transform="translate(712.355 3578.374)" fill="none" stroke="#934b38" stroke-linecap="round" stroke-linejoin="round" stroke-width="2"/>
    <line id="Линия_179" data-name="Линия 179" x1="7.021" y1="0.366" transform="translate(720.024 3570.593)" fill="none" stroke="#934b38" stroke-linecap="round" stroke-linejoin="round" stroke-width="2"/>
    <path id="Контур_351" data-name="Контур 351" d="M710.106,3565.3l3.6,10.139a4.406,4.406,0,0,0,4.153,2.932h9.234" fill="none" stroke="#934b38" stroke-linecap="round" stroke-linejoin="round" stroke-width="2"/>
    <path id="Контур_352" data-name="Контур 352" d="M727.044,3578.374a3.731,3.731,0,1,0,0-7.416" fill="none" stroke="#934b38" stroke-linecap="round" stroke-linejoin="round" stroke-width="2"/>
    <circle id="Эллипс_21" data-name="Эллипс 21" cx="8.752" cy="8.752" r="8.752" transform="matrix(0.383, -0.924, 0.924, 0.383, 757.515, 3551.532)" fill="none" stroke="#934b38" stroke-linecap="round" stroke-linejoin="round" stroke-width="2"/>
    <path id="Контур_353" data-name="Контур 353" d="M777.706,3578.372v-15.984c0-4.368-3.55-6.849-7.918-6.849h-1.475a7.436,7.436,0,0,0-7.008,4.948l-3.588,10.106" fill="none" stroke="#934b38" stroke-linecap="round" stroke-linejoin="round" stroke-width="2"/>
    <line id="Линия_180" data-name="Линия 180" y1="0.366" x2="7.021" transform="translate(750.696 3570.593)" fill="none" stroke="#934b38" stroke-linecap="round" stroke-linejoin="round" stroke-width="2"/>
    <path id="Контур_354" data-name="Контур 354" d="M767.635,3565.3l-3.6,10.139a4.408,4.408,0,0,1-4.154,2.932h-9.233" fill="none" stroke="#934b38" stroke-linecap="round" stroke-linejoin="round" stroke-width="2"/>
    <path id="Контур_355" data-name="Контур 355" d="M750.7,3578.374a3.731,3.731,0,1,1,0-7.416" fill="none" stroke="#934b38" stroke-linecap="round" stroke-linejoin="round" stroke-width="2"/>
    <path id="Контур_356" data-name="Контур 356" d="M773.066,3533.395V3500.7H704.674v32.694" fill="none" stroke="#934b38" stroke-linecap="round" stroke-linejoin="round" stroke-width="2"/>
    <path id="Контур_357" data-name="Контур 357" d="M719.817,3526.148a4.159,4.159,0,1,1-4.158-4.158A4.159,4.159,0,0,1,719.817,3526.148Z" fill="none" stroke="#934b38" stroke-linecap="round" stroke-linejoin="round" stroke-width="2"/>
    <path id="Контур_358" data-name="Контур 358" d="M762.472,3511.44c-17-3.331-19.789,18.651-36.553,15.209" fill="none" stroke="#934b38" stroke-linecap="round" stroke-linejoin="round" stroke-width="2"/>
    <path id="Контур_359" data-name="Контур 359" d="M758.68,3506.666l3.792,4.774-4.263,4.108" fill="none" stroke="#934b38" stroke-linecap="round" stroke-linejoin="round" stroke-width="2"/>
    <line id="Линия_181" data-name="Линия 181" x1="5.9" y2="5.9" transform="translate(752.31 3524.083)" fill="none" stroke="#934b38" stroke-linecap="round" stroke-linejoin="round" stroke-width="2"/>
    <line id="Линия_182" data-name="Линия 182" x2="5.9" y2="5.9" transform="translate(752.31 3524.083)" fill="none" stroke="#934b38" stroke-linecap="round" stroke-linejoin="round" stroke-width="2"/>
    <line id="Линия_183" data-name="Линия 183" x1="5.9" y2="5.9" transform="translate(725.435 3508.532)" fill="none" stroke="#934b38" stroke-linecap="round" stroke-linejoin="round" stroke-width="2"/>
    <line id="Линия_184" data-name="Линия 184" x2="5.9" y2="5.9" transform="translate(725.435 3508.532)" fill="none" stroke="#934b38" stroke-linecap="round" stroke-linejoin="round" stroke-width="2"/>
  </g>
</svg>
