<svg xmlns="http://www.w3.org/2000/svg" width="106.69" height="104.259" viewBox="0 0 106.69 104.259">
  <g id="Сгруппировать_182" data-name="Сгруппировать 182" transform="translate(-134.037 -390.741)">
    <path id="Контур_388" data-name="Контур 388" d="M140.447,472.026l16.6-20.533,4.612.841,22.507-26.777,6.58-1.981,11.477-13.524,15.7,18.387,3.874.772,4.243,8.053h3.505l9.793,15.069" fill="none" stroke="#7f6e2c" stroke-linecap="round" stroke-linejoin="round" stroke-width="2"/>
    <path id="Контур_389" data-name="Контур 389" d="M202.225,410.052l4.683,19.159,3.782.849,1.981,9.366,10.627,7.385" fill="none" stroke="#7f6e2c" stroke-linecap="round" stroke-linejoin="round" stroke-width="2"/>
    <path id="Контур_390" data-name="Контур 390" d="M158.818,465.182l12.067-10.329,4.5,5.165,16.51-10.958h4.743" fill="none" stroke="#7f6e2c" stroke-linecap="round" stroke-linejoin="round" stroke-width="2"/>
    <path id="Контур_391" data-name="Контур 391" d="M135.449,452.334l21.388-23.9,5.583,5.772,5.583.72,5.159,3.728" fill="none" stroke="#7f6e2c" stroke-linecap="round" stroke-linejoin="round" stroke-width="2"/>
    <path id="Контур_392" data-name="Контур 392" d="M156.837,428.431l-.9,11.6H160.8l2.762,3.6" fill="none" stroke="#7f6e2c" stroke-linecap="round" stroke-linejoin="round" stroke-width="2"/>
    <path id="Контур_393" data-name="Контур 393" d="M217.457,399.669a4.673,4.673,0,0,1,.695.057A6.578,6.578,0,0,1,231,398.42a5.485,5.485,0,1,1,1.876,10.639H217.807c-.059,0-.116-.007-.175-.009s-.116.009-.175.009a4.695,4.695,0,1,1,0-9.39Z" fill="none" stroke="#7f6e2c" stroke-linecap="round" stroke-linejoin="round" stroke-width="2"/>
    <path id="Контур_394" data-name="Контур 394" d="M157.159,413.611a4.842,4.842,0,0,0-.7.057,6.578,6.578,0,0,0-12.844-1.306A5.485,5.485,0,1,0,141.743,423h15.065c.059,0,.117-.006.176-.009s.116.009.175.009a4.7,4.7,0,1,0,0-9.39Z" fill="none" stroke="#7f6e2c" stroke-linecap="round" stroke-linejoin="round" stroke-width="2"/>
    <circle id="Эллипс_22" data-name="Эллипс 22" cx="7.652" cy="7.652" r="7.652" transform="translate(165.002 391.741)" fill="none" stroke="#7f6e2c" stroke-linecap="round" stroke-linejoin="round" stroke-width="2"/>
    <line id="Линия_211" data-name="Линия 211" x1="10.326" transform="translate(195.261 472.026)" fill="none" stroke="#7f6e2c" stroke-linecap="round" stroke-linejoin="round" stroke-width="2"/>
    <line id="Линия_212" data-name="Линия 212" x1="13.77" transform="translate(225.58 472.026)" fill="none" stroke="#7f6e2c" stroke-linecap="round" stroke-linejoin="round" stroke-width="2"/>
    <line id="Линия_213" data-name="Линия 213" x1="43.604" transform="translate(135.447 472.026)" fill="none" stroke="#7f6e2c" stroke-linecap="round" stroke-linejoin="round" stroke-width="2"/>
    <line id="Линия_214" data-name="Линия 214" y2="20.909" transform="translate(215.614 457.121)" fill="none" stroke="#7f6e2c" stroke-linecap="round" stroke-linejoin="round" stroke-width="2"/>
    <path id="Контур_395" data-name="Контур 395" d="M211.358,461.767l4.255-4.646,4.255,4.646" fill="none" stroke="#7f6e2c" stroke-linecap="round" stroke-linejoin="round" stroke-width="2"/>
    <path id="Контур_396" data-name="Контур 396" d="M209.737,470.452l5.876-6.417,5.876,6.417" fill="none" stroke="#7f6e2c" stroke-linecap="round" stroke-linejoin="round" stroke-width="2"/>
    <path id="Контур_397" data-name="Контур 397" d="M209.13,478.03l6.484-7.08,6.484,7.08" fill="none" stroke="#7f6e2c" stroke-linecap="round" stroke-linejoin="round" stroke-width="2"/>
    <line id="Линия_215" data-name="Линия 215" y2="20.909" transform="translate(187.396 463.124)" fill="none" stroke="#7f6e2c" stroke-linecap="round" stroke-linejoin="round" stroke-width="2"/>
    <path id="Контур_398" data-name="Контур 398" d="M183.141,467.771l4.255-4.647,4.255,4.647" fill="none" stroke="#7f6e2c" stroke-linecap="round" stroke-linejoin="round" stroke-width="2"/>
    <path id="Контур_399" data-name="Контур 399" d="M181.52,476.455l5.876-6.417,5.876,6.417" fill="none" stroke="#7f6e2c" stroke-linecap="round" stroke-linejoin="round" stroke-width="2"/>
    <path id="Контур_400" data-name="Контур 400" d="M180.912,484.034l6.484-7.08,6.484,7.08" fill="none" stroke="#7f6e2c" stroke-linecap="round" stroke-linejoin="round" stroke-width="2"/>
    <line id="Линия_216" data-name="Линия 216" y2="6.004" transform="translate(166.623 478.03)" fill="none" stroke="#7f6e2c" stroke-linecap="round" stroke-linejoin="round" stroke-width="2"/>
    <line id="Линия_217" data-name="Линия 217" y2="6.004" transform="translate(147.892 477.67)" fill="none" stroke="#7f6e2c" stroke-linecap="round" stroke-linejoin="round" stroke-width="2"/>
    <line id="Линия_218" data-name="Линия 218" y2="6.004" transform="translate(157.978 487.996)" fill="none" stroke="#7f6e2c" stroke-linecap="round" stroke-linejoin="round" stroke-width="2"/>
    <line id="Линия_219" data-name="Линия 219" y2="6.004" transform="translate(235.906 476.709)" fill="none" stroke="#7f6e2c" stroke-linecap="round" stroke-linejoin="round" stroke-width="2"/>
    <line id="Линия_220" data-name="Линия 220" y2="6.004" transform="translate(222.098 486.315)" fill="none" stroke="#7f6e2c" stroke-linecap="round" stroke-linejoin="round" stroke-width="2"/>
  </g>
</svg>
