<svg xmlns="http://www.w3.org/2000/svg" width="77.82" height="78.563" viewBox="0 0 77.82 78.563">
  <g id="Сгруппировать_193" data-name="Сгруппировать 193" transform="translate(-1257.611 -1603.777)">
    <line id="Линия_236" data-name="Линия 236" x1="5.957" y1="2.407" transform="translate(1263.692 1623.885)" fill="none" stroke="#7f6e2c" stroke-linecap="round" stroke-linejoin="round" stroke-width="2"/>
    <line id="Линия_237" data-name="Линия 237" x1="0.842" y2="6.37" transform="translate(1266.25 1621.904)" fill="none" stroke="#7f6e2c" stroke-linecap="round" stroke-linejoin="round" stroke-width="2"/>
    <path id="Контур_440" data-name="Контур 440" d="M1285.5,1636.117a4.589,4.589,0,0,1,.62.291c1.693.912,3.394,2.19,5.2.639,1.909-1.645,2-4.832,2.05-8.188a9.793,9.793,0,0,1,7.3-9.495" fill="none" stroke="#7f6e2c" stroke-linecap="round" stroke-linejoin="round" stroke-width="2"/>
    <path id="Контур_441" data-name="Контур 441" d="M1307.9,1619.984a9.3,9.3,0,0,1,4.231,3.716c1.908,3.149,3.065,6.343,5.189,6.681,4.88.777,5.8-4.134,5.8-4.134" fill="none" stroke="#7f6e2c" stroke-linecap="round" stroke-linejoin="round" stroke-width="2"/>
    <path id="Контур_442" data-name="Контур 442" d="M1270.185,1631.041c1.594,2.4,1.1,5.168-.382,7.933s-4.879,6.393-3,9.7a4.2,4.2,0,0,0,3.5,2.116c4.644.113,4-5.867,4.917-8.884a9.672,9.672,0,0,1,3.074-4.814" fill="none" stroke="#7f6e2c" stroke-linecap="round" stroke-linejoin="round" stroke-width="2"/>
    <line id="Линия_238" data-name="Линия 238" y2="51.535" transform="translate(1259 1620.669)" fill="none" stroke="#7f6e2c" stroke-linecap="round" stroke-linejoin="round" stroke-width="2"/>
    <line id="Линия_239" data-name="Линия 239" y1="15.504" x2="22.898" transform="translate(1259 1605.165)" fill="none" stroke="#7f6e2c" stroke-linecap="round" stroke-linejoin="round" stroke-width="2"/>
    <line id="Линия_240" data-name="Линия 240" y1="15.504" x2="22.898" transform="translate(1259 1656.7)" fill="none" stroke="#7f6e2c" stroke-linecap="round" stroke-linejoin="round" stroke-width="2"/>
    <path id="Контур_443" data-name="Контур 443" d="M1286.8,1658.219l-4.9-1.514v-51.537l22.384,6.919" fill="none" stroke="#7f6e2c" stroke-linecap="round" stroke-linejoin="round" stroke-width="2"/>
    <path id="Контур_444" data-name="Контур 444" d="M1304.286,1629.743v-17.656l22.5-3.911v32.716" fill="none" stroke="#7f6e2c" stroke-linecap="round" stroke-linejoin="round" stroke-width="2"/>
    <path id="Контур_445" data-name="Контур 445" d="M1294.931,1657.181a13.147,13.147,0,0,0,1.406,4.349v.009a13.175,13.175,0,0,0,2.675,3.537l.009.009" fill="none" stroke="#7f6e2c" stroke-linecap="round" stroke-linejoin="round" stroke-width="2"/>
    <circle id="Эллипс_24" data-name="Эллипс 24" cx="18.438" cy="18.438" r="18.438" transform="matrix(0.575, -0.818, 0.818, 0.575, 1282.659, 1659.728)" fill="none" stroke="#7f6e2c" stroke-linecap="round" stroke-linejoin="round" stroke-width="2"/>
    <path id="Контур_446" data-name="Контур 446" d="M1321.766,1653.333a13.126,13.126,0,0,0-1.407-4.349v-.009a13.137,13.137,0,0,0-2.675-3.537l-.008-.009a13.33,13.33,0,0,0-4.97-3" fill="none" stroke="#7f6e2c" stroke-linecap="round" stroke-linejoin="round" stroke-width="2"/>
    <g id="Сгруппировать_192" data-name="Сгруппировать 192">
      <path id="Контур_447" data-name="Контур 447" d="M1312.333,1667.961l-.982-13.634-3,.943-3,.942Z" fill="none" stroke="#7f6e2c" stroke-linecap="round" stroke-linejoin="round" stroke-width="2"/>
      <path id="Контур_448" data-name="Контур 448" d="M1311.352,1654.327l-6.986-11.749.982,13.634" fill="none" stroke="#7f6e2c" stroke-linecap="round" stroke-linejoin="round" stroke-width="2"/>
    </g>
    <ellipse id="Эллипс_25" data-name="Эллипс 25" cx="3.715" cy="2.128" rx="3.715" ry="2.128" transform="translate(1304.633 1632.563)" fill="none" stroke="#7f6e2c" stroke-linecap="round" stroke-linejoin="round" stroke-width="2"/>
  </g>
</svg>
