<svg xmlns="http://www.w3.org/2000/svg" width="26.301" height="39.946" viewBox="0 0 26.301 39.946">
  <g id="Сгруппировать_67" data-name="Сгруппировать 67" transform="translate(-4501.865 -4961.373)">
    <g id="Сгруппировать_66" data-name="Сгруппировать 66">
      <g id="Сгруппировать_65" data-name="Сгруппировать 65">
        <g id="Сгруппировать_64" data-name="Сгруппировать 64">
          <path id="Контур_174" data-name="Контур 174" d="M4515.979,5001.319a10.876,10.876,0,0,1-7.9-3.081,10.823,10.823,0,0,1,0-15.3,10.879,10.879,0,0,1,7.9-3.08,11.38,11.38,0,0,1,5.552,1.363,10.226,10.226,0,0,1,3.923,3.738l-5.1,3.1a4.894,4.894,0,0,0-1.8-1.845,4.949,4.949,0,0,0-2.57-.686,4.831,4.831,0,0,0-3.591,1.452,5.264,5.264,0,0,0,0,7.219,4.834,4.834,0,0,0,3.591,1.451,4.939,4.939,0,0,0,2.57-.686,4.887,4.887,0,0,0,1.8-1.843l5.1,3.079a10.178,10.178,0,0,1-3.923,3.757A11.386,11.386,0,0,1,4515.979,5001.319Z" fill="#231f20"/>
        </g>
      </g>
      <path id="Контур_175" data-name="Контур 175" d="M4515.015,4961.373l-13.15,4.484v5.88l13.15-4.484,13.151,4.484v-5.88Z" fill="#7f6e2c"/>
    </g>
  </g>
</svg>
